<svg width="519" height="318" viewBox="0 0 519 318" fill="#ffffff" xmlns="http://www.w3.org/2000/svg">
<path d="M239.288 9.26881L8.7753 249.131C3.43952 254.678 0.5 262.084 0.5 269.981C0.5 277.877 3.43952 285.283 8.7753 290.83L25.747 308.495C36.806 319.989 54.7801 319.989 65.8222 308.495L259.393 107.077L453.178 308.718C458.514 314.266 465.627 317.329 473.211 317.329C480.804 317.329 487.917 314.266 493.257 308.718L510.225 291.054C515.561 285.502 518.5 278.101 518.5 270.204C518.5 262.308 515.561 254.902 510.225 249.354L279.502 9.26881C274.149 3.70796 267.003 0.653657 259.405 0.671185C251.779 0.653657 244.636 3.70796 239.288 9.26881Z"/>
</svg>
