<svg width="519" height="318" viewBox="0 0 519 318" fill="none" xmlns="http://www.w3.org/2000/svg">
<path d="M279.712 308.731L510.225 68.869C515.56 63.322 518.5 55.916 518.5 48.019C518.5 40.123 515.56 32.717 510.225 27.17L493.253 9.505C482.194 -1.989 464.22 -1.989 453.178 9.505L259.607 210.923L65.822 9.28201C60.486 3.73401 53.373 0.67099 45.789 0.67099C38.196 0.67099 31.083 3.73401 25.743 9.28201L8.77499 26.946C3.43899 32.498 0.5 39.899 0.5 47.796C0.5 55.692 3.43899 63.098 8.77499 68.646L239.498 308.731C244.851 314.292 251.997 317.346 259.595 317.329C267.221 317.346 274.364 314.292 279.712 308.731Z" fill="white"/>
</svg>
